<svg xmlns="http://www.w3.org/2000/svg" width="2306.173" height="338.698" viewBox="0 0 2306.173 338.698">
  <g id="Kepler_Hosting_Logo" data-name="Kepler Hosting Logo" transform="translate(7.313 6.282)">
    <rect id="Rectangle_1" data-name="Rectangle 1" width="287" height="96" rx="19.67" transform="translate(394.23 96) rotate(180)" fill="#2359f0"/>
    <rect id="Rectangle_2" data-name="Rectangle 2" width="187.67" height="96.18" rx="17.65" transform="translate(193.4 61.728) rotate(135)" fill="#2359f0"/>
    <rect id="Rectangle_3" data-name="Rectangle 3" width="287" height="96" rx="19.67" transform="translate(0.23 230)" fill="#2359f0"/>
    <rect id="Rectangle_4" data-name="Rectangle 4" width="187.67" height="96.18" rx="17.65" transform="translate(200.489 264.406) rotate(-45)" fill="#2359f0"/>
    <path id="Path_1" data-name="Path 1" d="M848.19,307.68l-23.05,25.41V384.7H789V199h36.16v84.1l74.4-84.1H947l-73.62,81,74.11,104.7H902.16Z" transform="translate(-262.53 -134.64)" fill="#fff"/>
    <path id="Path_2" data-name="Path 2" d="M1074,347.76c-6.55,22.27-27,40.87-58.69,40.87-35.37,0-66.55-25.41-66.55-68.9,0-41.13,30.4-67.86,63.41-67.86,39.82,0,63.66,25.42,63.66,66.81,0,5-.52,10.22-.52,10.74H983.13c.78,17,15.19,29.35,32.48,29.35,16.25,0,25.15-8.13,29.35-19.65Zm-32.49-42.18c-.52-12.84-8.91-25.41-28.82-25.41-18.08,0-28,13.62-28.82,25.41Z" transform="translate(-262.53 -134.64)" fill="#fff"/>
    <path id="Path_3" data-name="Path 3" d="M1103.38,434.48V255.8h33.8v15.72c5.76-9.95,20.17-18.6,39.56-18.6,37.73,0,59.47,28.82,59.47,67.07,0,39-24.36,67.86-60.78,67.86-17.81,0-30.91-7.08-37.2-15.72v62.35Zm66.55-150.38c-17.82,0-32.23,13.36-32.23,36.15s14.41,36.42,32.23,36.42,32-13.36,32-36.42C1201.89,297.46,1187.74,284.1,1169.93,284.1Z" transform="translate(-262.53 -134.64)" fill="#fff"/>
    <path id="Path_4" data-name="Path 4" d="M1263.73,384.7V195h34.84V384.7Z" transform="translate(-262.53 -134.64)" fill="#fff"/>
    <path id="Path_5" data-name="Path 5" d="M1451.31,347.76c-6.55,22.27-27,40.87-58.68,40.87-35.37,0-66.55-25.41-66.55-68.9,0-41.13,30.39-67.86,63.4-67.86,39.83,0,63.67,25.42,63.67,66.81,0,5-.53,10.22-.53,10.74H1360.4c.79,17,15.2,29.35,32.49,29.35,16.24,0,25.15-8.13,29.34-19.65Zm-32.48-42.18c-.53-12.84-8.91-25.41-28.82-25.41-18.08,0-28,13.62-28.82,25.41Z" transform="translate(-262.53 -134.64)" fill="#fff"/>
    <path id="Path_6" data-name="Path 6" d="M1559.26,290.39a52.21,52.21,0,0,0-10.48-1.05c-17.82,0-33.28,8.64-33.28,36.41V384.7h-34.84V255.8h33.8v19.13c7.86-17,25.67-20.17,36.68-20.17a79.933,79.933,0,0,1,8.12.52Z" transform="translate(-262.53 -134.64)" fill="#fff"/>
    <path id="Path_7" data-name="Path 7" d="M1767.54,384.7v-77h-81v77h-36.16V199h36.16v74.67h81V199H1804V384.7Z" transform="translate(-262.53 -134.64)" fill="#fff"/>
    <path id="Path_8" data-name="Path 8" d="M1968.49,320.25c0,39.56-29.08,68.38-67.59,68.38s-67.59-28.82-67.59-68.38c0-39.82,29.08-68.38,67.59-68.38S1968.49,280.43,1968.49,320.25Zm-34.84,0c0-24.36-15.72-36.68-32.75-36.68s-32.75,12.32-32.75,36.68c0,24.11,15.72,36.68,32.75,36.68S1933.65,344.62,1933.65,320.25Z" transform="translate(-262.53 -134.64)" fill="#fff"/>
    <path id="Path_9" data-name="Path 9" d="M2014.87,342.26c.79,10.22,8.39,19.65,23.58,19.65,11.53,0,17-6,17-12.84,0-5.76-3.93-10.48-13.88-12.57l-17-3.93c-24.89-5.5-36.16-20.44-36.16-38.52,0-23.05,20.44-42.18,48.21-42.18,36.68,0,49,23.32,50.56,37.21l-29.08,6.55c-1-7.6-6.55-17.3-21.22-17.3-9.17,0-16.51,5.51-16.51,12.84,0,6.29,4.72,10.22,11.79,11.53l18.34,3.93c25.42,5.24,38.25,20.7,38.25,39.56,0,21-16.24,42.44-50,42.44-38.77,0-52.13-25.15-53.71-39.82Z" transform="translate(-262.53 -134.64)" fill="#fff"/>
    <path id="Path_10" data-name="Path 10" d="M2159.76,255.8h25.93v30.92h-25.93v54c0,11.27,5.24,14.93,15.19,14.93a50.106,50.106,0,0,0,10.74-1.05v28.82c-3.14,1.31-9.43,3.15-19.65,3.15-25.15,0-40.87-14.94-40.87-39.83v-60h-23.31V255.8h6.55c13.62,0,19.91-8.9,19.91-20.43V217.29h31.44Z" transform="translate(-262.53 -134.64)" fill="#fff"/>
    <path id="Path_11" data-name="Path 11" d="M2232.59,191.88a21.47,21.47,0,1,1-15.291,6.376A21.48,21.48,0,0,1,2232.59,191.88ZM2215.3,384.7V255.8h34.84V384.7Z" transform="translate(-262.53 -134.64)" fill="#fff"/>
    <path id="Path_12" data-name="Path 12" d="M2322.19,384.7h-34.85V255.8h33.8v16c7.86-13.37,23.32-19.39,37.2-19.39,32,0,46.64,22.79,46.64,51.09v81.2h-34.85V309.51c0-14.41-7.07-25.67-23.84-25.67-15.19,0-24.1,11.79-24.1,26.72Z" transform="translate(-262.53 -134.64)" fill="#fff"/>
    <path id="Path_13" data-name="Path 13" d="M2462.62,383.39c2.36,14.15,13.62,24.37,30.13,24.37,22,0,34.32-11,34.32-35.89v-9.44c-5.24,8.39-17.29,16.51-35.89,16.51-34.32,0-60-26.46-60-62.62,0-34.06,24.63-62.87,60-62.87,20.43,0,32.22,8.9,36.68,17.55V255.8h33.53v115c0,35.37-19.12,67.59-67.59,67.59-35.37,0-59-22-62.62-46.63Zm65-67.07c0-19.91-13.63-32.48-30.4-32.48-17.29,0-30.91,12.57-30.91,32.48,0,20.18,12.84,32.75,30.91,32.75,17.78,0,30.38-12.83,30.38-32.75Z" transform="translate(-262.53 -134.64)" fill="#fff"/>
  </g>
</svg>
