<svg id="Component_3_1" data-name="Component 3 – 1" xmlns="http://www.w3.org/2000/svg" width="380" height="58.674" viewBox="0 0 380 58.674">
  <g id="Group_1450" data-name="Group 1450" transform="translate(0 0.377)">
    <path id="Path_5" data-name="Path 5" d="M157.789,17.162H110.927A3.624,3.624,0,0,1,107.2,13.64V3.522A3.624,3.624,0,0,1,110.927,0h46.862a3.624,3.624,0,0,1,3.727,3.522V13.658A3.645,3.645,0,0,1,157.789,17.162Z" transform="translate(-86.924)" fill="#005af9"/>
    <path id="Path_6" data-name="Path 6" d="M34.244,14.106,13.869,33.36a3.485,3.485,0,0,1-4.73,0L1,25.673A3.04,3.04,0,0,1,1,21.2L21.38,1.95a3.485,3.485,0,0,1,4.73,0l8.135,7.687A3.04,3.04,0,0,1,34.244,14.106Z" transform="translate(-0.025 -0.842)" fill="#005af9"/>
    <path id="Path_7" data-name="Path 7" d="M3.927,230H50.789a3.624,3.624,0,0,1,3.727,3.522v10.136a3.624,3.624,0,0,1-3.727,3.522H3.927A3.65,3.65,0,0,1,.2,243.64V233.5A3.621,3.621,0,0,1,3.927,230Z" transform="translate(-0.167 -188.883)" fill="#005af9"/>
    <path id="Path_8" data-name="Path 8" d="M208.8,159.2,229.18,139.95a3.485,3.485,0,0,1,4.73,0l8.135,7.687a3.04,3.04,0,0,1,0,4.469L221.669,171.36a3.485,3.485,0,0,1-4.73,0l-8.135-7.687A3.04,3.04,0,0,1,208.8,159.2Z" transform="translate(-168.512 -114.172)" fill="#005af9"/>
  </g>
  <text id="Kepler_Hosting" data-name="Kepler Hosting" transform="translate(99 43)" fill="#fff" font-size="40" font-family="SegoeUI-Bold, Segoe UI" font-weight="700"><tspan x="0" y="0">Kepler Hosting</tspan></text>
</svg>
