<svg id="copy-light_3_" data-name="copy-light (3)" xmlns="http://www.w3.org/2000/svg" width="23" height="26.286" viewBox="0 0 23 26.286">
  <path id="copy-light_3_2" data-name="copy-light (3)" d="M22.278,3.385,19.615.722A2.464,2.464,0,0,0,17.872,0H9.036A2.464,2.464,0,0,0,6.571,2.464V4.929H2.464A2.464,2.464,0,0,0,0,7.393V23.821a2.464,2.464,0,0,0,2.464,2.464h11.5a2.464,2.464,0,0,0,2.464-2.464V21.357h4.107A2.464,2.464,0,0,0,23,18.893V5.128a2.464,2.464,0,0,0-.722-1.742ZM18.071,1.668a.815.815,0,0,1,.382.215l2.664,2.664a.816.816,0,0,1,.215.382h-3.26ZM14.786,23.821a.822.822,0,0,1-.821.821H2.464a.822.822,0,0,1-.821-.821V7.393a.822.822,0,0,1,.821-.821H6.571V18.893a2.464,2.464,0,0,0,2.464,2.464h5.75Zm6.571-4.929a.822.822,0,0,1-.821.821H9.036a.822.822,0,0,1-.821-.821V2.464a.822.822,0,0,1,.821-.821h7.393v3.7a1.236,1.236,0,0,0,1.232,1.232h3.7Z" fill="#005af9"/>
</svg>
