<svg xmlns="http://www.w3.org/2000/svg" xmlns:xlink="http://www.w3.org/1999/xlink" width="30" height="45.17" viewBox="0 0 30 45.17">
  <defs>
    <linearGradient id="linear-gradient" y1="0.5" x2="0.996" y2="0.5" gradientUnits="objectBoundingBox">
      <stop offset="0" stop-color="#005af9"/>
      <stop offset="0.15" stop-color="#055cf9"/>
      <stop offset="0.34" stop-color="#1463fa"/>
      <stop offset="0.54" stop-color="#2d6dfb"/>
      <stop offset="0.76" stop-color="#4f7cfd"/>
      <stop offset="0.98" stop-color="#7b8fff"/>
      <stop offset="1" stop-color="#7e90ff"/>
    </linearGradient>
    <linearGradient id="linear-gradient-2" x1="0" y1="0.5" x2="1" y2="0.5" xlink:href="#linear-gradient"/>
  </defs>
  <g id="lock3_v2" transform="translate(-20 -4.84)">
    <path id="Path_29" data-name="Path 29" d="M49.986,60.883l-.76-4.595a3.21,3.21,0,1,0-4.92,0l-.76,4.595a1,1,0,0,0,1,1.165h4.47a1,1,0,0,0,1-1.165Z" transform="translate(-11.766 -23.088)" fill="url(#linear-gradient)"/>
    <path id="Path_30" data-name="Path 30" d="M35,62.046a1,1,0,0,1-.5-.135l-14-8.03a1,1,0,0,1-.5-.87V37.956a1,1,0,0,1,.5-.865l14-8.045a1,1,0,0,1,1,0l14,8.035a1,1,0,0,1,.5.875V53.011a1,1,0,0,1-.5.87l-14,8.03A1,1,0,0,1,35,62.046Zm-13-9.59,13,7.435,13-7.435V38.526l-13-7.46-13,7.46Z" transform="translate(0 -12.036)" fill="url(#linear-gradient-2)"/>
    <path id="Path_31" data-name="Path 31" d="M38,24.14V20.93a5,5,0,1,1,10,0v3.21l2,1.15V20.93a7,7,0,1,0-14,0v4.36Z" transform="translate(-8 -4.545)" fill="#0e146a"/>
    <path id="Path_32" data-name="Path 32" d="M27.39,22.64V16.28a9.46,9.46,0,0,1,9.45-9.45h1.71A9.46,9.46,0,0,1,48,16.28v6.36l2,1.15v-7.5A11.46,11.46,0,0,0,38.55,4.84H36.84A11.46,11.46,0,0,0,25.39,16.29v7.5Z" transform="translate(-2.695)" fill="#0e146a"/>
  </g>
</svg>
