<svg id="shieldlock2_darkbg" xmlns="http://www.w3.org/2000/svg" width="23.623" height="26.637" viewBox="0 0 23.623 26.637">
  <path id="Path_41" data-name="Path 41" d="M27.047,37.447h-.02a9.783,9.783,0,0,1-6.019-2.977c-3.83-3.715-5.777-10.093-5.777-18.964a.691.691,0,0,1,.826-.663c8.071,1.658,10.277-3.4,10.365-3.613a.68.68,0,0,1,.625-.421h0a.68.68,0,0,1,.625.421c.1.224,2.3,5.271,10.365,3.613a.677.677,0,0,1,.816.663c0,8.87-1.941,15.249-5.777,18.964a9.806,9.806,0,0,1-6.019,2.977ZM16.6,16.312c.085,5.686,1.111,12.979,5.274,17.094a8.775,8.775,0,0,0,5.169,2.681,8.506,8.506,0,0,0,5.169-2.668c4.163-4.116,5.189-11.409,5.274-17.108-4.3.68-7.018-.469-8.568-1.6a8.241,8.241,0,0,1-1.876-1.89C25.85,14.47,22.832,17.332,16.6,16.312Z" transform="translate(-15.23 -10.81)" fill="#fff"/>
  <path id="Path_42" data-name="Path 42" d="M47.919,46.672,47.4,43.549a2.182,2.182,0,1,0-3.344,0l-.517,3.123a.68.68,0,0,0,.68.792H47.26a.68.68,0,0,0,.68-.792Z" transform="translate(-33.914 -30.057)" fill="#fff"/>
</svg>
